<?xml version="1.0" encoding="UTF-8"?>
<svg version="1.1" xmlns="http://www.w3.org/2000/svg" width="512" height="512">
<path d="M0 0 C5.39072327 3.77350629 10.20740236 7.9469488 15 12.4375 C15.61431885 13.01234131 16.2286377 13.58718262 16.86157227 14.17944336 C18.5753375 15.78528019 20.28785814 17.39243272 22 19 C39.14998869 35.06492789 58.81266521 44.76396014 82.56713867 44.46801758 C101.15976457 43.78773423 118.24125456 36.50990782 132 24 C132.51159668 23.53513184 133.02319336 23.07026367 133.55029297 22.59130859 C136.36760078 20.02358335 139.16648063 17.43688848 141.953125 14.8359375 C144.40316652 12.55054119 146.86905243 10.28677129 149.375 8.0625 C149.91898437 7.57910156 150.46296875 7.09570312 151.0234375 6.59765625 C153.91614227 4.25948184 156.95721046 2.13736121 160 0 C167.70921752 8.25407951 175.35215275 16.52655122 182.6640625 25.13671875 C188.26575804 31.72120024 193.9523613 38.19230002 199.84375 44.51953125 C203.05969439 47.97369374 206.20517955 51.47435592 209.29296875 55.04296875 C211.33633431 57.3855915 213.41680859 59.69273422 215.5 62 C218.76390848 65.61676345 221.98790949 69.26389608 225.1875 72.9375 C227.27211164 75.30964429 229.38428644 77.65556065 231.5 80 C234.76390848 83.61676345 237.98790949 87.26389608 241.1875 90.9375 C243.27211164 93.30964429 245.38428644 95.65556065 247.5 98 C250.76390848 101.61676345 253.98790949 105.26389608 257.1875 108.9375 C259.27211164 111.30964429 261.38428644 113.65556065 263.5 116 C266.76704335 119.62023723 269.99520776 123.26983565 273.1953125 126.94921875 C275.22958141 129.26088797 277.3022231 131.5353143 279.375 133.8125 C282.48528851 137.25378205 285.46478312 140.76321298 288.375 144.375 C293.32241831 150.49578831 298.63167924 156.25037795 304 162 C299.50956971 166.93292909 293.86470276 168.71450545 287.32084846 169.36666203 C282.82927431 169.56660337 278.33883651 169.53388668 273.84399414 169.50793457 C272.10181947 169.51254799 270.35964869 169.51890386 268.617486 169.52684355 C263.84781476 169.54349939 259.07846479 169.53530754 254.30879259 169.52289867 C249.15805954 169.51383517 244.00738109 169.52782437 238.85665894 169.53881836 C228.77337954 169.55659426 218.69021931 169.55276771 208.60693526 169.5411678 C200.41121554 169.53213011 192.21552919 169.53091093 184.01980591 169.53526306 C182.85284559 169.53587599 181.68588528 169.53648893 180.48356253 169.53712043 C178.11282117 169.53839935 175.74207982 169.5396962 173.37133849 169.5410108 C151.14679791 169.55241388 128.92232335 169.53930714 106.6977936 169.51780933 C87.6328059 169.49993861 68.56791563 169.5030428 49.50292969 169.52148438 C27.3572997 169.54289587 5.21172757 169.55131526 -16.93391132 169.53903532 C-19.29587618 169.53776114 -21.65784104 169.53650366 -24.01980591 169.53526306 C-25.18190344 169.53464596 -26.34400098 169.53402886 -27.54131359 169.53339306 C-35.72611407 169.529941 -43.91087782 169.5357654 -52.09567261 169.54518127 C-62.07175186 169.5564057 -72.04770524 169.55335177 -82.02377009 169.5320583 C-87.1126185 169.52155396 -92.20125711 169.51741567 -97.29010391 169.53065491 C-101.95097343 169.54259722 -106.6114392 169.53598585 -111.27227223 169.5147447 C-112.95585073 169.51028645 -114.63946352 169.51252741 -116.32301986 169.52224785 C-136.02608419 169.62725817 -136.02608419 169.62725817 -142.7572031 163.36526537 C-143.16732608 162.9147278 -143.57744905 162.46419023 -144 162 C-142.85724609 160.78376953 -142.85724609 160.78376953 -141.69140625 159.54296875 C-136.84478 154.35545312 -132.05556142 149.17785864 -127.625 143.625 C-122.79751343 137.60826035 -117.51729536 132.05469097 -112.23046875 126.4453125 C-109.28967421 123.32224078 -106.43600823 120.13727908 -103.63671875 116.88671875 C-101.62126228 114.56341213 -99.56151538 112.28251535 -97.5 110 C-94.81016569 107.01937279 -92.13689636 104.02754767 -89.5 101 C-86.10746907 97.10487189 -82.64805799 93.27217237 -79.1875 89.4375 C-77.27445851 87.30582519 -75.38112388 85.1598089 -73.5 83 C-70.10746907 79.10487189 -66.64805799 75.27217237 -63.1875 71.4375 C-61.27445851 69.30582519 -59.38112388 67.1598089 -57.5 65 C-54.10746907 61.10487189 -50.64805799 57.27217237 -47.1875 53.4375 C-44.69938313 50.66502692 -42.24932536 47.86155151 -39.8046875 45.05078125 C-37.77041859 42.73911203 -35.6977769 40.4646857 -33.625 38.1875 C-30.57141133 34.81059018 -27.65570795 31.36782868 -24.8125 27.8125 C-20.46814878 22.43560052 -15.80422261 17.40399676 -11.0480957 12.38989258 C-7.23311961 8.36215925 -3.58062362 4.23806741 0 0 Z " fill="#3F9AFF" transform="translate(176,252)"/>
<path d="M0 0 C0.71411311 -0.00235223 1.42822621 -0.00470446 2.16397911 -0.00712797 C4.56923133 -0.01381226 6.97442945 -0.01335992 9.37969017 -0.01294994 C11.11668206 -0.01624892 12.85367317 -0.01997456 14.59066331 -0.02409142 C19.37378508 -0.03411565 24.1568943 -0.0378289 28.94002509 -0.04048073 C34.09493719 -0.04438251 39.24983935 -0.05396092 44.4047451 -0.0626936 C56.85855321 -0.08246126 69.31236213 -0.09252446 81.76618201 -0.10142139 C87.62950256 -0.10580367 93.49282221 -0.11117062 99.35614204 -0.11641026 C118.84459877 -0.13342261 138.33305493 -0.14791719 157.82151794 -0.155159 C162.87951343 -0.15706892 167.93750891 -0.15898925 172.99550438 -0.16094494 C174.2526587 -0.16142868 175.50981303 -0.16191242 176.80506293 -0.16241082 C197.17410596 -0.17071267 217.54309028 -0.1960522 237.91210766 -0.22852562 C258.8197732 -0.26158632 279.7274089 -0.27960685 300.63510072 -0.28280324 C312.37593498 -0.28496921 324.11668364 -0.29373079 335.85749245 -0.31926441 C345.85565758 -0.34095784 355.85371632 -0.34902847 365.85190232 -0.33929763 C370.95287336 -0.33474907 376.05362481 -0.33667165 381.15456581 -0.35605907 C385.82675598 -0.37366352 390.49856591 -0.37271503 395.17075996 -0.35716178 C396.85856412 -0.35478159 398.54639442 -0.35913057 400.23415859 -0.37099043 C409.13240167 -0.42963156 416.90551373 -0.2227836 424.94521141 4.13422108 C424.94521141 7.13422108 424.94521141 7.13422108 423.03896141 9.14984608 C422.18302391 9.88718983 421.32708641 10.62453358 420.44521141 11.38422108 C419.52482079 12.18601795 418.60443016 12.98781483 417.65614891 13.81390858 C416.76153954 14.5796117 415.86693016 15.34531483 414.94521141 16.13422108 C413.65211003 17.25757169 412.36031143 18.38242486 411.07021141 19.50922108 C410.43341454 20.06351795 409.79661766 20.61781483 409.14052391 21.18890858 C406.37772191 23.63708544 403.66099441 26.13421724 400.94521141 28.63422108 C396.98656492 32.27833824 392.99344453 35.87335763 388.92958641 39.39984608 C384.8914645 42.92922822 380.9260646 46.54056334 376.94521141 50.13422108 C374.44833149 52.38219085 371.9506799 54.62930115 369.45302391 56.87640858 C367.75928247 58.40130352 366.06659972 59.92737509 364.37489891 61.45453358 C360.62956885 64.83334816 356.88002934 68.20318073 353.07021141 71.50922108 C349.10346241 74.96205927 345.23838472 78.52299488 341.36977196 82.08466053 C337.95922335 85.21939159 334.50362025 88.2914841 331.00380516 91.32562733 C328.45564491 93.56433358 325.95110548 95.84832319 323.44521141 98.13422108 C320.3261413 100.97946336 317.1976575 103.80621688 314.00771141 106.57172108 C310.59832561 109.53305618 307.26726831 112.57574594 303.94521141 115.63422108 C299.98658955 119.27836436 295.99344381 122.87335825 291.92958641 126.39984608 C287.8914645 129.92922822 283.9260646 133.54056334 279.94521141 137.13422108 C277.44833149 139.38219085 274.9506799 141.62930115 272.45302391 143.87640858 C270.75928247 145.40130352 269.06659972 146.92737509 267.37489891 148.45453358 C262.94754782 152.44862707 258.50409823 156.41891225 253.99599266 160.32172108 C252.51395456 161.63156047 251.05576008 162.96854728 249.61318016 164.32172108 C241.07449592 172.28219521 232.10209953 178.48254224 220.94521141 182.13422108 C220.26458641 182.35980701 219.58396141 182.58539295 218.88271141 182.81781483 C204.35719411 186.80682999 188.38290532 184.1276475 175.13271141 177.44672108 C169.39488923 174.07553772 164.74131608 169.7050054 159.94521141 165.13422108 C158.63965943 163.98047747 157.32752562 162.83412194 156.00771141 161.69672108 C151.8107906 158.04243246 147.70868381 154.28677134 143.59755516 150.53656483 C141.42060145 148.56480263 139.22682467 146.6205677 137.00771141 144.69672108 C133.59832561 141.73538597 130.26726831 138.69269621 126.94521141 135.63422108 C122.98658955 131.99007779 118.99344381 128.3950839 114.92958641 124.86859608 C110.8914645 121.33921394 106.9260646 117.72787882 102.94521141 114.13422108 C101.2788029 112.63393429 99.61213788 111.13393235 97.94521141 109.63422108 C94.61187808 106.63422108 91.27854474 103.63422108 87.94521141 100.63422108 C87.12278954 99.8942992 86.30036766 99.15437733 85.45302391 98.39203358 C83.75928247 96.86713863 82.06659972 95.34106706 80.37489891 93.81390858 C76.62956885 90.435094 72.88002934 87.06526143 69.07021141 83.75922108 C65.10424065 80.30706029 61.24003495 76.74671227 57.37196922 73.18597889 C53.93496721 70.02724143 50.4549982 66.92783771 46.92958641 63.86859608 C42.8914645 60.33921394 38.9260646 56.72787882 34.94521141 53.13422108 C33.2788029 51.63393429 31.61213788 50.13393235 29.94521141 48.63422108 C27.42020649 46.36250818 24.89607837 44.08986694 22.37489891 41.81390858 C18.62956885 38.435094 14.88002934 35.06526143 11.07021141 31.75922108 C7.10778886 28.31014882 3.24594181 24.75410019 -0.61704445 21.19476795 C-3.53993063 18.50658642 -6.4901188 15.85845314 -9.49228859 13.25922108 C-12.48354952 10.66762758 -15.29987585 7.97522484 -18.05478859 5.13422108 C-11.60636325 1.28996751 -7.63218274 0.01070646 0 0 Z " fill="#5BB0FF" transform="translate(52.05478858947754,90.86577892303467)"/>
<path d="M0 0 C5.7349894 4.10391113 10.91602558 8.55708315 16 13.4375 C20.62521586 17.85042567 25.29527121 22.17465539 30.125 26.36352539 C32.79580665 28.69456927 35.39617085 31.09428829 38 33.5 C41.95769137 37.14514414 45.95179174 40.73915812 50.015625 44.265625 C54.05374691 47.79500714 58.01914681 51.40634226 62 55 C63.66640851 56.50028679 65.33307353 58.00028872 67 59.5 C69.52500493 61.7717129 72.04913304 64.04435414 74.5703125 66.3203125 C78.31564256 69.69912708 82.06518207 73.06895965 85.875 76.375 C89.84097076 79.82716078 93.70517646 83.38750881 97.57324219 86.94824219 C101.0102442 90.10697965 104.49021321 93.20638336 108.015625 96.265625 C112.05374691 99.79500714 116.01914681 103.40634226 120 107 C121.66640851 108.50028679 123.33307353 110.00028872 125 111.5 C125.8146875 112.23476562 126.629375 112.96953125 127.46875 113.7265625 C129.23345917 115.31153277 131.0048293 116.88910458 132.78125 118.4609375 C133.6784375 119.25757813 134.575625 120.05421875 135.5 120.875 C136.3146875 121.59429687 137.129375 122.31359375 137.96875 123.0546875 C140 125 140 125 142 128 C141.35933594 128.70125 140.71867188 129.4025 140.05859375 130.125 C135.5835206 135.03357501 131.1348113 139.95900535 126.77734375 144.97265625 C124.70640513 147.33489173 122.60487152 149.66795853 120.5 152 C117.81016569 154.98062721 115.13689636 157.97245233 112.5 161 C109.10746907 164.89512811 105.64805799 168.72782763 102.1875 172.5625 C100.27445851 174.69417481 98.38112388 176.8401911 96.5 179 C93.10746907 182.89512811 89.64805799 186.72782763 86.1875 190.5625 C84.27445851 192.69417481 82.38112388 194.8401911 80.5 197 C77.86310364 200.02754767 75.18983431 203.01937279 72.5 206 C67.70092208 211.32334693 62.9592205 216.68863339 58.3203125 222.15234375 C52.72558261 228.73318179 47.04264888 235.19765898 41.15625 241.51953125 C37.94030561 244.97369374 34.79482045 248.47435592 31.70703125 252.04296875 C29.66366569 254.3855915 27.58319141 256.69273422 25.5 259 C22.23854875 262.61404058 19.01640845 266.25789354 15.8203125 269.9296875 C13.6937768 272.34827961 11.53530894 274.73653963 9.375 277.125 C6.16150707 280.6845614 3.03115299 284.28439311 0 288 C-2.5184885 285.77697663 -3.60984847 283.94047625 -4.625 280.75 C-4.86476563 280.02296875 -5.10453125 279.2959375 -5.3515625 278.546875 C-7.02600012 271.97016819 -7.14486477 265.56529758 -7.13371277 258.81719971 C-7.13597833 257.80625897 -7.13824388 256.79531824 -7.14057809 255.75374293 C-7.14689672 252.37390287 -7.14609009 248.99410312 -7.14526367 245.61425781 C-7.14825651 243.18775379 -7.15165932 240.76125024 -7.15544128 238.33474731 C-7.16335608 232.43178513 -7.16649541 226.52883237 -7.16705366 220.62586597 C-7.16752961 215.82492432 -7.16958831 211.02398596 -7.17275429 206.22304535 C-7.1815568 192.59641597 -7.18617434 178.96979445 -7.18542381 165.34316221 C-7.18538386 164.60923509 -7.1853439 163.87530796 -7.18530273 163.11914062 C-7.18526185 162.38431209 -7.18522097 161.64948355 -7.18517885 160.89238748 C-7.18477258 148.98890839 -7.19433851 137.08546095 -7.2084411 125.18199101 C-7.22282406 112.94480975 -7.22971022 100.7076439 -7.22884732 88.47045398 C-7.228516 81.6061766 -7.23123467 74.7419324 -7.24202538 67.87766266 C-7.25211276 61.41965549 -7.25177542 54.9617002 -7.24450874 48.50368881 C-7.24346471 46.13784304 -7.245815 43.77199288 -7.2518692 41.40615463 C-7.25961775 38.16759974 -7.25492529 34.92928481 -7.24723816 31.69073486 C-7.25238172 30.76259578 -7.25752529 29.8344567 -7.26282471 28.87819219 C-7.20660962 18.10325448 -5.186432 9.41746862 0 0 Z " fill="#67BAFF" transform="translate(19,111)"/>
<path d="M0 0 C2.82894155 2.42480704 3.88805716 4.76318474 5.125 8.25 C5.62386719 9.61898437 5.62386719 9.61898437 6.1328125 11.015625 C8.07306148 17.69287824 8.14509857 24.29323088 8.13371277 31.18280029 C8.13597833 32.19374103 8.13824388 33.20468176 8.14057809 34.24625707 C8.14689672 37.62609713 8.14609009 41.00589688 8.14526367 44.38574219 C8.14825651 46.81224621 8.15165932 49.23874976 8.15544128 51.66525269 C8.16335608 57.56821487 8.16649541 63.47116763 8.16705366 69.37413403 C8.16752961 74.17507568 8.16958831 78.97601404 8.17275429 83.77695465 C8.1815568 97.40358403 8.18617434 111.03020555 8.18542381 124.65683779 C8.18538386 125.39076491 8.1853439 126.12469204 8.18530273 126.88085938 C8.18526185 127.61568791 8.18522097 128.35051645 8.18517885 129.10761252 C8.18477258 141.01109161 8.19433851 152.91453905 8.2084411 164.81800899 C8.22282406 177.05519025 8.22971022 189.2923561 8.22884732 201.52954602 C8.228516 208.3938234 8.23123467 215.2580676 8.24202538 222.12233734 C8.25211276 228.58034451 8.25177542 235.0382998 8.24450874 241.49631119 C8.24346471 243.86215696 8.245815 246.22800712 8.2518692 248.59384537 C8.25961775 251.83240026 8.25492529 255.07071519 8.24723816 258.30926514 C8.25238172 259.23740422 8.25752529 260.1655433 8.26282471 261.12180781 C8.21173899 270.91358171 6.85139173 279.42920795 2 288 C-1.91395537 285.153487 -4.9242337 281.92557015 -8.046875 278.2734375 C-10.16034501 275.81335841 -12.32426992 273.40514379 -14.5 271 C-17.76390848 267.38323655 -20.98790949 263.73610392 -24.1875 260.0625 C-26.27211164 257.69035571 -28.38428644 255.34443935 -30.5 253 C-33.76704335 249.37976277 -36.99520776 245.73016435 -40.1953125 242.05078125 C-42.22958141 239.73911203 -44.3022231 237.4646857 -46.375 235.1875 C-49.42858867 231.81059018 -52.34429205 228.36782868 -55.1875 224.8125 C-60.09003486 218.74679782 -65.42258037 213.11835023 -70.76953125 207.4453125 C-73.71032579 204.32224078 -76.56399177 201.13727908 -79.36328125 197.88671875 C-81.37873772 195.56341213 -83.43848462 193.28251535 -85.5 191 C-88.76390848 187.38323655 -91.98790949 183.73610392 -95.1875 180.0625 C-97.27211164 177.69035571 -99.38428644 175.34443935 -101.5 173 C-104.76390848 169.38323655 -107.98790949 165.73610392 -111.1875 162.0625 C-113.27211164 159.69035571 -115.38428644 157.34443935 -117.5 155 C-120.7596698 151.38793346 -123.98229401 147.74819872 -127.171875 144.07421875 C-130.05721917 140.80046286 -133.02284949 137.59939889 -135.984375 134.39453125 C-137.96283121 132.04415595 -139.49871416 129.67475926 -141 127 C-136.20449119 122.10458476 -131.36414121 117.34351566 -126.1640625 112.87890625 C-123.57061106 110.62719119 -121.03613024 108.31605282 -118.5 106 C-115.38092989 103.15475772 -112.25244609 100.3280042 -109.0625 97.5625 C-105.65311482 94.60116544 -102.32203624 91.55849695 -99 88.5 C-95.0671272 84.87912455 -91.09786058 81.31041136 -87.05859375 77.80859375 C-84.5104335 75.5698875 -82.00589407 73.28589788 -79.5 71 C-76.38092989 68.15475772 -73.25244609 65.3280042 -70.0625 62.5625 C-66.6531142 59.6011649 -63.3220569 56.55847514 -60 53.5 C-56.04137814 49.85585671 -52.0482324 46.26086283 -47.984375 42.734375 C-43.94625309 39.20499286 -39.98085319 35.59365774 -36 32 C-33.50312008 29.75203023 -31.00546849 27.50491993 -28.5078125 25.2578125 C-26.81407106 23.73291756 -25.12138831 22.20684598 -23.4296875 20.6796875 C-18.32487356 16.07442721 -13.18550801 11.51407769 -8 7 C-6.49968066 5.68786505 -4.99967399 4.37537249 -3.5 3.0625 C-2.33333333 2.04166667 -1.16666667 1.02083333 0 0 Z " fill="#3592FF" transform="translate(492,111)"/>
</svg>
